<svg width="35" height="35" viewBox="0 0 24 24" fill="#E50914" xmlns="http://www.w3.org/2000/svg">
  <path d="M16.6 5.82C15.9165 5.03962 15.5397 4.03743 15.54 3H12.45V15.4C12.4262 16.071 12.1429 16.7066 11.6598 17.1729C11.1767 17.6393 10.5297 17.8999 9.85999 17.9C8.43999 17.9 7.29999 16.77 7.29999 15.35C7.29999 13.93 8.42999 12.8 9.84999 12.8C10.1399 12.8 10.4199 12.85 10.6799 12.95V9.8C10.2056 9.71596 9.72305 9.67857 9.23999 9.69C8.41593 9.69151 7.60232 9.8681 6.86334 10.2065C6.12435 10.5449 5.47674 11.0358 4.96946 11.6427C4.46217 12.2497 4.10566 12.9596 3.92747 13.7177C3.74928 14.4759 3.75366 15.2644 3.93999 16.02C4.2613 17.5298 5.1227 18.8814 6.36 19.79C7.5973 20.6986 9.12328 21.1177 10.65 20.97C12.1767 20.8223 13.5986 20.1192 14.6718 19.0007C15.745 17.8822 16.3906 16.4325 16.48 14.9V9.15C17.74 10.04 19.27 10.5 20.85 10.5V7.4C20.85 7.4 18.5 7.45 16.6 5.82Z" />
</svg>